<svg width="31" height="34" viewBox="0 0 31 34" fill="none" xmlns="http://www.w3.org/2000/svg">
<path d="M28.0104 7.1982L17.9585 1.40748C17.2099 0.976735 16.361 0.75 15.4969 0.75C14.6328 0.75 13.7839 0.976735 13.0353 1.40748L2.98963 7.1982C2.23643 7.62647 1.60968 8.24543 1.17259 8.99266C0.735485 9.73988 0.503491 10.589 0.5 11.4542V23.0419C0.502221 23.9074 0.733681 24.757 1.17091 25.5045C1.60814 26.2519 2.23558 26.8707 2.98963 27.2979L9.02697 30.7773C9.09544 30.3176 9.18257 29.8578 9.26971 29.4042L9.36307 28.9507C9.71673 27.3893 10.1615 25.85 10.695 24.3405C10.7759 24.0981 10.8631 23.8558 10.9502 23.6073C11.3673 22.4348 11.8751 21.2964 12.4689 20.2025C12.6494 19.8794 12.8423 19.5811 13.0477 19.258C13.2531 18.935 13.4523 18.6367 13.6701 18.3323C13.7075 18.2764 13.7448 18.2142 13.7884 18.1583C13.5991 18.1874 13.4055 18.1501 13.2407 18.0527H13.2095C13.1693 18.03 13.1317 18.0029 13.0975 17.9719L13.0539 17.9346C13.0115 17.8858 12.9759 17.8315 12.9481 17.7731V17.7234C12.9227 17.6813 12.8999 17.6377 12.8797 17.5929V17.5432C12.8529 17.4799 12.8361 17.4128 12.8299 17.3444C12.8268 17.3196 12.8268 17.2946 12.8299 17.2698L12.3257 17.1828C12.2719 17.1695 12.2249 17.1368 12.1938 17.0908C12.1628 17.0449 12.1499 16.9891 12.1577 16.9343C12.1749 16.6756 12.1256 16.4168 12.0145 16.1825C12.0548 16.3751 12.0548 16.5739 12.0145 16.7665C12.0145 16.8535 11.9461 16.8908 11.8714 16.897C11.7034 16.8995 11.5365 16.87 11.3797 16.81C11.0996 16.7168 10.8195 16.81 10.5519 16.7541C10.1846 16.6609 10.0851 16.1887 9.84232 15.9029C9.90408 16.107 9.95396 16.3144 9.9917 16.5242C9.9917 16.6112 9.9917 16.6858 9.88589 16.7106C9.63693 16.7852 9.39419 16.7106 9.12656 16.7603C8.90818 16.8336 8.67841 16.8673 8.44813 16.8597C8.1805 16.8287 8.01867 16.5864 7.85685 16.3503C7.90664 16.6174 7.85685 16.8225 7.42116 16.7852C6.76803 16.7226 6.10897 16.7731 5.47303 16.9343C4.99378 17.071 4.53319 17.3195 4.05394 17.4624H4.01037C3.9668 17.5867 3.70539 17.4624 3.69917 17.3319C3.70632 16.7064 3.87291 16.0929 4.18326 15.5494C4.4936 15.0059 4.93747 14.5502 5.47303 14.2253C5.56208 14.1607 5.65568 14.1026 5.75311 14.0514L5.84647 14.0017C5.92221 13.9582 6.0013 13.9208 6.08299 13.8898L6.14523 13.8588C6.3748 13.7638 6.61221 13.689 6.85477 13.6351C7.83599 13.4339 8.84478 13.4045 9.8361 13.5481C11.4413 13.7593 12.9069 14.5696 13.9378 15.8159L14.0685 15.9961L14.1992 16.2136C14.1156 15.5674 13.9308 14.9384 13.6515 14.3496C13.6421 14.3257 13.6271 14.3044 13.6079 14.2875C13.4896 14.1446 13.2095 13.9023 13.278 13.7221C13.3144 13.6208 13.3848 13.5351 13.4772 13.4798C13.4057 13.4758 13.3368 13.4522 13.278 13.4114C13.0104 13.225 12.861 12.7901 12.5373 12.7093C12.4564 12.7093 12.3568 12.6223 12.3444 12.5291C12.331 12.4573 12.3347 12.3833 12.3553 12.3131C12.3758 12.243 12.4126 12.1786 12.4627 12.1253C12.5411 12.0263 12.6264 11.9329 12.7178 11.8457C12.4767 11.814 12.2329 11.8788 12.0394 12.0259C11.9496 12.0688 11.8524 12.0941 11.7531 12.1004C11.5726 12.1439 11.3797 11.9451 11.249 11.8457C10.9943 11.6796 10.7304 11.5282 10.4585 11.3921C10.4293 11.3706 10.4057 11.3425 10.3895 11.3101C10.3732 11.2777 10.3649 11.2419 10.3651 11.2057C10.3651 10.9572 10.5892 10.8329 10.7822 10.69C10.5887 10.8358 10.3555 10.9198 10.1134 10.9309C9.87121 10.942 9.63134 10.8797 9.42531 10.7522C9.13278 10.5471 8.59751 10.2613 8.42946 9.93201C8.38645 9.86243 8.37091 9.77936 8.38587 9.69897C8.40082 9.61858 8.4452 9.54661 8.51037 9.49708C8.21162 9.58407 7.88797 9.74561 7.62033 9.60892C7.3527 9.47223 6.78631 9.08701 6.88589 8.82606C6.9174 8.75383 6.95272 8.68331 6.9917 8.61481L7.03527 8.54646L7.12241 8.42841L7.18465 8.36007L7.29046 8.26687C7.30611 8.24364 7.32497 8.22272 7.34647 8.20474L7.47718 8.11154L7.53942 8.07426C7.60602 8.03741 7.67459 8.00423 7.74481 7.97485H7.81328L7.98133 7.91893H8.06847H8.1556C8.98226 7.77129 9.83093 7.80094 10.6452 8.00591C13.0228 8.58996 14.6784 10.8454 15.1017 13.225C15.1046 13.2477 15.1046 13.2707 15.1017 13.2934C15.1041 13.341 15.1041 13.3887 15.1017 13.4363C15.1017 13.4363 15.1017 13.4922 15.1017 13.517C15.3001 12.9777 15.535 12.4525 15.805 11.9451C16.1652 10.888 16.7345 9.91393 17.4793 9.0808C17.5913 8.96275 17.7095 8.83848 17.8278 8.72665L17.9461 8.60859L18.1888 8.37871C18.7394 7.86236 19.4029 7.48121 20.1268 7.2655C20.8506 7.0498 21.6149 7.00548 22.3589 7.13606C22.8417 7.2761 23.2878 7.51999 23.666 7.85058L23.9398 8.01834C24.0394 8.08047 24.0332 8.22338 23.9398 8.22959C23.597 8.31976 23.2796 8.48773 23.0124 8.72043C22.9191 8.80742 22.7759 8.95032 22.6266 8.9379C22.5376 8.94106 22.4501 8.91485 22.3776 8.86334C22.0492 8.56665 21.6436 8.36852 21.2075 8.29172C21.4813 8.52161 21.8734 8.6583 21.973 9.04973C21.9788 9.06768 21.981 9.0866 21.9794 9.10539C21.9779 9.12418 21.9726 9.14248 21.9639 9.15923C21.9553 9.17598 21.9433 9.19085 21.9289 9.20298C21.9144 9.21511 21.8977 9.22427 21.8797 9.22992C21.4191 9.34175 21.2573 9.89473 20.8527 9.99414C20.6344 10.0142 20.4157 9.96175 20.2303 9.84503C20.3164 9.89596 20.3824 9.97494 20.417 10.0687C20.3299 10.5223 19.639 10.8826 19.3402 11.2181C19.0415 11.5537 19.0602 11.6903 18.6743 11.6034C18.4564 11.5474 17.4295 11.0317 18.0519 11.5164C18.3053 11.6949 18.4916 11.953 18.5809 12.2495C18.6369 12.5167 17.9959 12.9081 17.8589 13.107C17.722 13.3058 17.5664 13.5854 17.417 13.8277L17.8029 13.5543C18.0398 13.4055 18.2898 13.2787 18.5498 13.1753C19.5389 12.7756 20.6023 12.592 21.6684 12.637C22.7345 12.682 23.7786 12.9546 24.7303 13.4363C25.5764 13.8532 26.2881 14.4991 26.7842 15.3002C26.834 15.3748 26.8714 15.4556 26.9149 15.5363L27.0021 15.7227V15.8097C27.0021 15.8656 27.0456 15.9215 27.0643 15.9775C27.0817 16.0242 27.0962 16.0719 27.1079 16.1204L27.1452 16.2446C27.1452 16.3378 27.1888 16.4372 27.2075 16.5304C27.2261 16.6236 27.3755 17.3444 27.2075 17.4749C26.9336 17.742 26.0436 17.3754 25.7573 17.2325C25.7043 17.1936 25.6622 17.1417 25.6349 17.0819C25.6077 17.0221 25.5963 16.9563 25.6017 16.8908C25.6112 16.4107 25.5044 15.9354 25.2905 15.5053C25.3632 15.8126 25.3987 16.1276 25.3963 16.4435C25.3963 16.487 25.3963 16.5367 25.3403 16.5491C25.1598 16.6299 25.0851 16.5988 24.8921 16.5118C24.4923 16.4022 24.1012 16.263 23.722 16.0955C23.6419 16.0632 23.5728 16.0085 23.5231 15.938C23.4734 15.8674 23.4452 15.7841 23.4419 15.6979C23.3848 15.1527 23.1683 14.6363 22.8195 14.2129C23.0311 14.8342 23.4419 15.8221 22.7199 15.642C22.5207 15.5922 22.334 15.5115 22.1286 15.4493C21.9232 15.3872 21.5062 15.4493 21.2448 15.3064C21.1413 15.2526 21.055 15.1708 20.9959 15.0703C20.9261 14.8981 20.8385 14.7336 20.7344 14.5795C20.7951 14.7008 20.8084 14.8403 20.7718 14.9709C20.6473 15.3313 19.9502 15.0082 19.7448 14.9709C19.038 14.9158 18.3275 15.012 17.661 15.2531C16.9944 15.4942 16.3871 15.8746 15.8797 16.3689L15.612 16.6485C15.6529 16.6962 15.6884 16.7483 15.7178 16.8038L15.861 16.7168H15.9046C15.9979 16.6671 16.0975 16.6174 16.2033 16.5739L16.278 16.5367L16.527 16.4435H16.6079C16.7119 16.4067 16.8179 16.3756 16.9253 16.3503H16.9938L17.1556 16.313C17.4391 16.2527 17.7259 16.2091 18.0145 16.1825C18.7274 16.1397 19.4413 16.2476 20.1095 16.4992C20.7777 16.7508 21.3852 17.1405 21.8921 17.6426C22.7901 18.5308 23.4447 19.6341 23.7935 20.8471C24.1422 22.06 24.1733 23.342 23.8838 24.5703C23.8838 24.6014 23.8838 24.6263 23.8838 24.6573L23.8465 24.7878C23.7967 24.9245 23.7531 25.0612 23.6971 25.1979L23.6598 25.2787C23.598 25.4237 23.5273 25.5648 23.4481 25.7011C23.3921 25.8068 23.2178 25.7322 23.1681 25.6639C22.9066 25.3035 22.5456 25.0798 22.278 24.7505C22.252 24.7237 22.2365 24.6884 22.2344 24.6511C22.1971 24.6511 22.166 24.5766 22.1846 24.5393C22.3923 23.9396 22.4995 23.3098 22.5021 22.6753C22.5021 22.7374 22.5021 22.7996 22.5021 22.8555C22.4461 23.2842 22.4274 23.8123 22.0353 24.0671C21.9232 24.1416 21.7427 24.0236 21.7303 23.8931C21.3195 23.6508 20.7905 23.1165 20.8963 22.6194C21.0365 21.9291 21.0238 21.2166 20.8589 20.5318C20.8428 20.7997 20.7351 21.0541 20.5539 21.2525C20.5132 21.2923 20.4585 21.3147 20.4015 21.3147C20.3444 21.3147 20.2897 21.2923 20.249 21.2525C19.9191 20.9543 19.3651 20.8238 19.2282 20.364C19.191 20.0859 19.1723 19.8057 19.1722 19.5252L19.1349 19.2767C19.1354 19.4288 19.0969 19.5786 19.0228 19.7116C18.9481 19.8421 18.7303 19.7427 18.6681 19.6619C18.5531 19.5119 18.4144 19.3818 18.2573 19.2767C17.9734 19.0926 17.6734 18.9345 17.361 18.8045L17.1307 18.6989C16.689 18.4907 16.2116 18.3684 15.7241 18.3385C15.7776 18.4544 15.8034 18.5812 15.7996 18.7087C15.7958 18.8363 15.7625 18.9613 15.7022 19.0739C15.6419 19.1864 15.5563 19.2835 15.4521 19.3575C15.3479 19.4315 15.228 19.4804 15.1017 19.5004C14.8535 19.5561 14.5934 19.5162 14.3734 19.3885L14.2676 19.3202L14.2303 19.2891C14.1618 19.5066 14.0871 19.7178 14.0249 19.9104V20.0036C13.9876 20.1093 13.9564 20.2149 13.9191 20.3205C13.7946 20.6809 13.6888 21.0475 13.583 21.414L13.5394 21.5507C13.4959 21.6998 13.4523 21.8427 13.4149 21.9919C13.3091 22.3957 13.2095 22.7934 13.1162 23.1972L12.8921 24.1727C12.895 24.1912 12.895 24.2101 12.8921 24.2286C12.7303 24.9494 12.5747 25.6701 12.444 26.397L12.3257 26.8444C12.1726 27.7181 12.0687 28.5997 12.0145 29.485C12.0145 29.659 12.0145 29.8267 12.0145 30.0007C12.0145 30.0815 12.0145 30.156 12.0145 30.2368C12.0145 30.6966 12.0145 31.1626 12.0145 31.6223C12.0145 31.6658 12.0145 31.7093 12.0145 31.7528C12.0145 31.9703 12.0519 32.1877 12.083 32.3741C12.0888 32.4382 12.0888 32.5027 12.083 32.5668L12.9979 33.0887C13.7457 33.5218 14.595 33.75 15.4595 33.75C16.3241 33.75 17.1734 33.5218 17.9212 33.0887L28.0104 27.2979C28.764 26.8702 29.3911 26.2513 29.8283 25.504C30.2654 24.7566 30.4971 23.9073 30.5 23.0419V11.4542C30.4952 10.5892 30.2627 9.74064 29.8258 8.99363C29.3888 8.24662 28.7627 7.62744 28.0104 7.1982Z" fill="url(#paint0_linear_268_695)"/>
<defs>
<linearGradient id="paint0_linear_268_695" x1="15.5" y1="0.75" x2="15.5" y2="34.875" gradientUnits="userSpaceOnUse">
<stop stop-color="#6CDCFF"/>
<stop offset="1" stop-color="#9747FF"/>
</linearGradient>
</defs>
</svg>
